<?xml version="1.0" encoding="utf-8"?>
<!-- Generator: Adobe Illustrator 24.2.3, SVG Export Plug-In . SVG Version: 6.00 Build 0)  -->
<svg version="1.1" xmlns="http://www.w3.org/2000/svg" xmlns:xlink="http://www.w3.org/1999/xlink" x="0px" y="0px"
	 viewBox="0 0 863.62 233.63" style="enable-background:new 0 0 863.62 233.63;" xml:space="preserve">
<style type="text/css">
	.st0{fill:#ADA1B9;stroke:#000000;stroke-width:2;stroke-miterlimit:10;}
	.st1{fill:url(#SVGID_1_);stroke:#FFFFFF;stroke-miterlimit:10;}
	.st2{fill:url(#SVGID_2_);stroke:#FFFFFF;stroke-miterlimit:10;}
	.st3{fill:url(#SVGID_3_);stroke:#FFFFFF;stroke-miterlimit:10;}
	.st4{fill:url(#SVGID_4_);stroke:#FFFFFF;stroke-miterlimit:10;}
	.st5{fill:url(#SVGID_5_);stroke:#FFFFFF;stroke-miterlimit:10;}
	.st6{fill:url(#SVGID_6_);stroke:#FFFFFF;stroke-miterlimit:10;}
	.st7{fill:url(#SVGID_7_);stroke:#FFFFFF;stroke-miterlimit:10;}
	.st8{fill:url(#SVGID_8_);stroke:#FFFFFF;stroke-miterlimit:10;}
	.st9{fill:url(#SVGID_9_);stroke:#FFFFFF;stroke-miterlimit:10;}
	.st10{fill:url(#SVGID_10_);stroke:#FFFFFF;stroke-miterlimit:10;}
	.st11{fill:url(#SVGID_11_);stroke:#FFFFFF;stroke-miterlimit:10;}
	.st12{fill:url(#SVGID_12_);stroke:#FFFFFF;stroke-miterlimit:10;}
	.st13{fill:url(#SVGID_13_);stroke:#FFFFFF;stroke-miterlimit:10;}
	.st14{fill:url(#SVGID_14_);stroke:#FFFFFF;stroke-miterlimit:10;}
</style>
<g id="Layer_2">
	<rect class="st0" width="863.62" height="233.63"/>
</g>
<g id="Layer_1">
	<linearGradient id="SVGID_1_" gradientUnits="userSpaceOnUse" x1="38.672" y1="112.031" x2="117.6945" y2="112.031">
		<stop  offset="5.618000e-03" style="stop-color:#F5EAB1"/>
		<stop  offset="0.3071" style="stop-color:#F9C9DE"/>
		<stop  offset="0.6413" style="stop-color:#ABE1FA"/>
		<stop  offset="0.8859" style="stop-color:#D6BEDC"/>
		<stop  offset="1" style="stop-color:#D5E8BF"/>
	</linearGradient>
	<path class="st1" d="M85.24,186.3L77,102.74h-0.27L71.7,204.32L53.51,186.3L38.67,46.04l21.68-23.89l1.67,116.87h0.27l8.24-92.97
		l14.17-12.25l6.98,105.23h0.27l8.38-92.97l17.34-26.29L99.02,196.29L85.24,186.3z"/>
	<linearGradient id="SVGID_2_" gradientUnits="userSpaceOnUse" x1="102.3706" y1="116.1669" x2="163.0379" y2="116.1669">
		<stop  offset="5.618000e-03" style="stop-color:#F5EAB1"/>
		<stop  offset="0.3071" style="stop-color:#F9C9DE"/>
		<stop  offset="0.6413" style="stop-color:#ABE1FA"/>
		<stop  offset="0.8859" style="stop-color:#D6BEDC"/>
		<stop  offset="1" style="stop-color:#D5E8BF"/>
	</linearGradient>
	<path class="st2" d="M140.55,185.97l-3.16-31.86h-16.07l-3.16,31.86l-15.78,10.32l19.89-167.8l16.5,17.22l24.28,158.13
		L140.55,185.97z M123.24,134.87h12.23l-5.91-59.11h-0.41L123.24,134.87z"/>
	<linearGradient id="SVGID_3_" gradientUnits="userSpaceOnUse" x1="141.8079" y1="116.1669" x2="214.9958" y2="116.1669">
		<stop  offset="5.618000e-03" style="stop-color:#F5EAB1"/>
		<stop  offset="0.3071" style="stop-color:#F9C9DE"/>
		<stop  offset="0.6413" style="stop-color:#ABE1FA"/>
		<stop  offset="0.8859" style="stop-color:#D6BEDC"/>
		<stop  offset="1" style="stop-color:#D5E8BF"/>
	</linearGradient>
	<path class="st3" d="M180.55,114.68l-10.4,3.63l9.45,57.69l-12.78,28.33l-25-168.4l21.44-6.95c15.23-5.31,25.78,12.3,29.45,34.72
		l1.6,9.74c2.36,14.42,4.04,28.1-1.61,35.84L215,194.54l-20.43-7.77L180.55,114.68z M167.01,99.21l5.75-2
		c6.81-2.37,9.03-8.71,7.14-20.21l-1.15-7.02c-1.88-11.5-5.82-15.69-12.63-13.31l-5.75,2L167.01,99.21z"/>
	<linearGradient id="SVGID_4_" gradientUnits="userSpaceOnUse" x1="191.757" y1="109.278" x2="285.8297" y2="109.278">
		<stop  offset="5.618000e-03" style="stop-color:#F5EAB1"/>
		<stop  offset="0.3071" style="stop-color:#F9C9DE"/>
		<stop  offset="0.6413" style="stop-color:#ABE1FA"/>
		<stop  offset="0.8859" style="stop-color:#D6BEDC"/>
		<stop  offset="1" style="stop-color:#D5E8BF"/>
	</linearGradient>
	<path class="st4" d="M258.56,177.76l-12-43.46l-15.71,11.84l7.28,31.57l-20.29,15.3L191.76,44.89l21.26-19.36l72.82,167.49
		L258.56,177.76z M226.48,127.07l11.95-9.01l-25.01-49.91l-0.4,0.3L226.48,127.07z"/>
	
		<linearGradient id="SVGID_5_" gradientUnits="userSpaceOnUse" x1="298.8394" y1="99.9134" x2="358.6756" y2="99.9134" gradientTransform="matrix(0.9994 0.0357 -0.0357 0.9994 5.0019 -3.0804)">
		<stop  offset="5.618000e-03" style="stop-color:#F5EAB1"/>
		<stop  offset="0.3071" style="stop-color:#F9C9DE"/>
		<stop  offset="0.6413" style="stop-color:#ABE1FA"/>
		<stop  offset="0.8859" style="stop-color:#D6BEDC"/>
		<stop  offset="1" style="stop-color:#D5E8BF"/>
	</linearGradient>
	<path class="st5" d="M329.89,198.86L303.31,17.22l20.71,19.07l14.56,104.12l0.27,0.02l1.4-102.78l21.61,16.72l-7.91,126.94
		L329.89,198.86z"/>
	<linearGradient id="SVGID_6_" gradientUnits="userSpaceOnUse" x1="359.0753" y1="120.1284" x2="408.5535" y2="120.1284">
		<stop  offset="5.618000e-03" style="stop-color:#F5EAB1"/>
		<stop  offset="0.3071" style="stop-color:#F9C9DE"/>
		<stop  offset="0.6413" style="stop-color:#ABE1FA"/>
		<stop  offset="0.8859" style="stop-color:#D6BEDC"/>
		<stop  offset="1" style="stop-color:#D5E8BF"/>
	</linearGradient>
	<path class="st6" d="M380.72,65.67l-1.97,41.35l23.9,2.25l-0.72,25.6l-23.18-11.93l-3.73,45.4l27.35-11.74l-3.74,45.73
		l-39.56-19.99l9.49-126.32l39.98-18.11l-3.84,43.37L380.72,65.67z"/>
	<linearGradient id="SVGID_7_" gradientUnits="userSpaceOnUse" x1="529.9291" y1="119.2533" x2="608.697" y2="119.2533">
		<stop  offset="5.618000e-03" style="stop-color:#F5EAB1"/>
		<stop  offset="0.3071" style="stop-color:#F9C9DE"/>
		<stop  offset="0.6413" style="stop-color:#ABE1FA"/>
		<stop  offset="0.8859" style="stop-color:#D6BEDC"/>
		<stop  offset="1" style="stop-color:#D5E8BF"/>
	</linearGradient>
	<path class="st7" d="M584.19,196.06l-4.62-61.11h-12.68v61.11l-15.68,19.18L529.93,23.26l24.7,21.74l6.96,64.27l19.34,4.82
		l-3.8-68.06l17.42,7.87l14.15,154.93L584.19,196.06z"/>
	
		<linearGradient id="SVGID_8_" gradientUnits="userSpaceOnUse" x1="579.8073" y1="213.9799" x2="639.2448" y2="213.9799" gradientTransform="matrix(0.9577 -0.2876 0.2876 0.9577 -26.2865 94.8808)">
		<stop  offset="5.618000e-03" style="stop-color:#F5EAB1"/>
		<stop  offset="0.3071" style="stop-color:#F9C9DE"/>
		<stop  offset="0.6413" style="stop-color:#ABE1FA"/>
		<stop  offset="0.8859" style="stop-color:#D6BEDC"/>
		<stop  offset="1" style="stop-color:#D5E8BF"/>
	</linearGradient>
	<path class="st8" d="M644.85,194.54l-7.17-45.44l-15.39,6.74l3.26,31.84l-12.88,18.95l-12.8-154.15l17.76-7.78l50.24,139.07
		L644.85,194.54z M620.34,136.62l11.71-5.13l-17.31-54.13l-0.4,0.17L620.34,136.62z"/>
	
		<linearGradient id="SVGID_9_" gradientUnits="userSpaceOnUse" x1="591.3514" y1="194.8586" x2="647.7189" y2="194.8586" gradientTransform="matrix(1.1323 -0.3048 0.2834 1.0529 -84.3437 92.419)">
		<stop  offset="5.618000e-03" style="stop-color:#F5EAB1"/>
		<stop  offset="0.3071" style="stop-color:#F9C9DE"/>
		<stop  offset="0.6413" style="stop-color:#ABE1FA"/>
		<stop  offset="0.8859" style="stop-color:#D6BEDC"/>
		<stop  offset="1" style="stop-color:#D5E8BF"/>
	</linearGradient>
	<path class="st9" d="M685.9,191.2l-14.97-8.3l-12.34-66.88L620.81,44.2l17.42-6.84l23.5,46.88l0.31-0.12l3.57-57.51l17.11-6.72
		l-7.61,89.87L685.9,191.2z"/>
	<linearGradient id="SVGID_10_" gradientUnits="userSpaceOnUse" x1="687.4169" y1="110.883" x2="735.2238" y2="110.883">
		<stop  offset="5.618000e-03" style="stop-color:#F5EAB1"/>
		<stop  offset="0.3071" style="stop-color:#F9C9DE"/>
		<stop  offset="0.6413" style="stop-color:#ABE1FA"/>
		<stop  offset="0.8859" style="stop-color:#D6BEDC"/>
		<stop  offset="1" style="stop-color:#D5E8BF"/>
	</linearGradient>
	<path class="st10" d="M712.7,30.57c15.66,0,22.53,24.61,22.53,47.66v69.33c0,23.04-2.71,42.31-18.37,42.31l-26.68,1.34
		l-2.75-160.63H712.7z M704.73,163.38h5.77c7.01,0,10.17-5.41,10.17-17.23V79.63c0-11.82-3.16-17.23-10.17-17.23h-5.77V163.38z"/>
	<linearGradient id="SVGID_11_" gradientUnits="userSpaceOnUse" x1="739.1421" y1="118.6046" x2="780.0782" y2="118.6046">
		<stop  offset="5.618000e-03" style="stop-color:#F5EAB1"/>
		<stop  offset="0.3071" style="stop-color:#F9C9DE"/>
		<stop  offset="0.6413" style="stop-color:#ABE1FA"/>
		<stop  offset="0.8859" style="stop-color:#D6BEDC"/>
		<stop  offset="1" style="stop-color:#D5E8BF"/>
	</linearGradient>
	<path class="st11" d="M753.7,62.39v44.59H775v28.9H753.7v41.68h26.38v13.64l-40.94,15.44V30.57l40.94,26.37v19.64L753.7,62.39z"/>
	<linearGradient id="SVGID_12_" gradientUnits="userSpaceOnUse" x1="783.4111" y1="120.8856" x2="827.9988" y2="120.8856">
		<stop  offset="5.618000e-03" style="stop-color:#F5EAB1"/>
		<stop  offset="0.3071" style="stop-color:#F9C9DE"/>
		<stop  offset="0.6413" style="stop-color:#ABE1FA"/>
		<stop  offset="0.8859" style="stop-color:#D6BEDC"/>
		<stop  offset="1" style="stop-color:#D5E8BF"/>
	</linearGradient>
	<path class="st12" d="M799.77,64.48v45.3h21.29v19.64h-21.29v41.68h26.38V210l-40.94-19.26l-1.8-134L828,31.77v22.51L799.77,64.48z
		"/>
	
		<linearGradient id="SVGID_13_" gradientUnits="userSpaceOnUse" x1="374.8086" y1="54.1026" x2="468.9247" y2="54.1026" gradientTransform="matrix(0.9299 0.3093 -0.3106 0.9206 56.6291 -54.9467)">
		<stop  offset="5.618000e-03" style="stop-color:#F5EAB1"/>
		<stop  offset="0.3071" style="stop-color:#F9C9DE"/>
		<stop  offset="0.6413" style="stop-color:#ABE1FA"/>
		<stop  offset="0.8859" style="stop-color:#D6BEDC"/>
		<stop  offset="1" style="stop-color:#D5E8BF"/>
	</linearGradient>
	<path class="st13" d="M435.54,126.9l-10.45-1.36l-3.5,57.37l-17.92,20.31l9.59-166.32l24.44,3.27
		c15.29,1.98,21.35,22.96,19.99,45.25l-0.59,9.69c-0.87,14.34-2.22,27.7-9.13,32.27l3.43,84.98l-18.18-12.77L435.54,126.9z
		 M426.26,106.55l5.77,0.75c6.84,0.89,10.25-3.94,10.94-15.38l0.43-6.98c0.7-11.44-2.07-17.07-8.91-17.96l-5.77-0.75L426.26,106.55z
		"/>
	
		<linearGradient id="SVGID_14_" gradientUnits="userSpaceOnUse" x1="424.2608" y1="56.9113" x2="531.7693" y2="56.9113" gradientTransform="matrix(0.9519 0.3065 -0.3065 0.9519 54.9151 -66.9582)">
		<stop  offset="5.618000e-03" style="stop-color:#F5EAB1"/>
		<stop  offset="0.4209" style="stop-color:#F9C9DE"/>
		<stop  offset="0.7039" style="stop-color:#ABE1FA"/>
		<stop  offset="0.8859" style="stop-color:#D6BEDC"/>
		<stop  offset="1" style="stop-color:#D5E8BF"/>
	</linearGradient>
	<path class="st14" d="M496.44,199.81l-0.13-40.1l-17.44,4.25l0.24,26.81l-24.51,21.6l8.33-162.26l24.3-8.92l32.55,183.14
		L496.44,199.81z M478.71,143.85l13.26-3.23l-13.31-58.69l-0.45,0.11L478.71,143.85z"/>
</g>
</svg>
